<?xml version="1.0" encoding="utf-8"?>
<!-- Generator: Adobe Illustrator 28.2.0, SVG Export Plug-In . SVG Version: 6.00 Build 0)  -->
<svg version="1.1" id="Layer_1" xmlns="http://www.w3.org/2000/svg" xmlns:xlink="http://www.w3.org/1999/xlink" x="0px" y="0px"
	 viewBox="0 0 112 73" style="enable-background:new 0 0 112 73;" xml:space="preserve">
<g>
	<path d="M10,0.1L0,71.2h6.7l2-15.1h11.2l2,15.1h6.8l-10-71.1H10z M9.8,50.6L13.4,22l0.8-12.9h0.2L15.2,22l3.6,28.6H9.8z"/>
	<path d="M49.7,59.4c0,4.6-2.1,7-5.6,7c-3.5,0-5.6-2.4-5.6-7V0.1h-6.4v59.3c0,8.4,3.9,12.8,12,12.8c8.2,0,12.1-4.4,12.1-12.8V0.1
		h-6.4L49.7,59.4L49.7,59.4z"/>
	<path d="M68,65.1V6l44,0V0l-50,0V71l50,0v-5.9L68,65.1z"/>
</g>
</svg>
