<?xml version="1.0" encoding="utf-8"?>
<!-- Generator: Adobe Illustrator 28.2.0, SVG Export Plug-In . SVG Version: 6.00 Build 0)  -->
<svg version="1.1" id="Layer_1" xmlns="http://www.w3.org/2000/svg" xmlns:xlink="http://www.w3.org/1999/xlink" x="0px" y="0px"
	 viewBox="0 0 226 73" style="enable-background:new 0 0 226 73;" xml:space="preserve">
<g>
	<path d="M77.8,24.8V9.6c0-2.4,1.6-4,4.8-4c3.8,0,5.2,2.2,5.3,5v14.1h6.2V10.6C93.9,4.4,90.1,0,82.5,0S71.4,3.9,71.4,9.5v15.3
		c0,15.1,16.5,10,16.5,20.9V63c0,2.7-1.7,4.5-5.1,4.5c-4.1,0-5.7-2.4-5.7-5.3V46.7h-6.4v15.5c0.1,6.6,4.1,10.8,12,10.8
		c7.3,0,11.6-3.7,11.6-10.1V45.4C94.4,30.2,77.8,35.1,77.8,24.8L77.8,24.8z"/>
	<path d="M97.1,6.8h8.6V72h6.5V6.8h8.6V0.9H97.1V6.8z"/>
	<path d="M142.6,60.2c0,4.6-2.1,7-5.6,7s-5.6-2.4-5.6-7V0.9H125v59.3c0,8.4,3.9,12.8,12,12.8c8.2,0,12.1-4.4,12.1-12.8V0.9h-6.4
		L142.6,60.2L142.6,60.2z"/>
	<path d="M167.9,0.9h-11.7V72H168c8.6,0,12.7-5,12.7-14V14.9C180.6,5.9,176.5,0.9,167.9,0.9z M174.2,58.4c0,5.6-2.4,7.9-6.9,7.9
		h-4.7V6.6h4.7c4.5,0,6.9,2.2,6.9,7.9V58.4L174.2,58.4z"/>
	<path d="M193.7,0.9h-6.4V72h6.4V0.9z"/>
	<path d="M213.1,0c-8.3,0-12.9,5.2-12.9,14.4v44.2c0,9.2,4.6,14.4,12.9,14.4c8.3,0,12.9-5.2,12.9-14.4V14.4C226,5.1,221.4,0,213.1,0
		z M219.5,58.9c0,5.4-2.3,8.3-6.3,8.3s-6.4-3-6.4-8.3V14.1c0-5.4,2.3-8.2,6.4-8.2c4.1,0,6.3,2.9,6.3,8.2V58.9z"/>
	<path d="M37.6,37.9h11.9v-5.4H37.6V6.2H51V0.5H31.1v71.1h20v-5.7H37.6V37.9z"/>
	<path d="M27,42H9V0H0v6h3v42h18l0,0v17H0v6h27V42z"/>
</g>
</svg>
